<svg width="32" height="32" viewBox="0 0 32 32" fill="none" xmlns="http://www.w3.org/2000/svg">
  <!-- Clipboard -->
  <rect x="4" y="2" width="20" height="26" rx="2" stroke="currentColor" stroke-width="2" fill="none"/>
  
  <!-- Clip -->
  <path d="M8 2C8 1.44772 8.44772 1 9 1H19C19.5523 1 20 1.44772 20 2V4H8V2Z" stroke="currentColor" stroke-width="2" fill="none"/>
  
  <!-- Checklist lines -->
  <rect x="8" y="8" width="2" height="2" stroke="currentColor" stroke-width="1" fill="none"/>
  <line x1="12" y1="9" x2="16" y2="9" stroke="currentColor" stroke-width="1"/>
  <line x1="12" y1="10.5" x2="14" y2="10.5" stroke="currentColor" stroke-width="1"/>
  
  <rect x="8" y="12" width="2" height="2" stroke="currentColor" stroke-width="1" fill="none"/>
  <line x1="12" y1="13" x2="15" y2="13" stroke="currentColor" stroke-width="1"/>
  
  <rect x="8" y="16" width="2" height="2" stroke="currentColor" stroke-width="1" fill="none"/>
  <line x1="12" y1="17" x2="15" y2="17" stroke="currentColor" stroke-width="1"/>
  
  <!-- Pencil -->
  <line x1="18" y1="6" x2="26" y2="14" stroke="currentColor" stroke-width="2"/>
  <line x1="25" y1="13" x2="27" y2="15" stroke="currentColor" stroke-width="2"/>
  <line x1="26" y1="14" x2="28" y2="16" stroke="currentColor" stroke-width="2"/>
</svg>